<svg id="Calque_2" data-name="Calque 2" xmlns="http://www.w3.org/2000/svg" viewBox="0 0 841.89 282.22"><defs><style>.cls-1{fill:#26bfbf;}.cls-2{fill:#fff;}</style></defs><rect class="cls-1" x="406.5" y="3.3" width="46.44" height="46.53"/><path class="cls-2" d="M452.94,68.84H406.5v150h46.44Z"/><path class="cls-2" d="M667.61,282.22V69H621.8V180.55l-132.35-116V218.79h45.81V166.24Z"/><polygon class="cls-2" points="696.25 115.02 745.77 115.02 745.77 278.03 792.21 278.03 792.21 115.02 841.89 115.02 841.89 68.84 696.25 68.84 696.25 115.02"/><path class="cls-1" d="M104.23,149.06a25.33,25.33,0,0,1-35.81,23.06c0,.44,0,.88,0,1.32a34.89,34.89,0,1,0,34.89-34.89l-1.32,0A25.15,25.15,0,0,1,104.23,149.06Z"/><path class="cls-2" d="M325.57,237.68h-58c34.34-56.34,68.36-112.14,102.6-168.33l-72.7-.21q-95,0-189.95.1a188.63,188.63,0,0,0-21.07,1.65c-8.24,1-16,3.65-23.63,7A104.28,104.28,0,0,0,1.11,188.61,101.35,101.35,0,0,0,12.23,222.7a103.15,103.15,0,0,0,27.41,32.7C52.58,265.55,66.87,272.87,83.19,276a116.19,116.19,0,0,0,26.38,2,104.24,104.24,0,0,0,31.1-6.18,99.23,99.23,0,0,0,24.73-13.2,101.25,101.25,0,0,0,28.71-31A105.74,105.74,0,0,0,207.9,158a103.09,103.09,0,0,0-7.83-27H151.65a62.24,62.24,0,0,1,16.49,37.9,60.75,60.75,0,0,1-10,39.17c-11.4,17.31-27.47,27.17-48.1,29.25a60.44,60.44,0,0,1-34.69-6.88,62.69,62.69,0,0,1-34-49.72,62.14,62.14,0,0,1,1.29-22.44,60.3,60.3,0,0,1,12.77-25c11.66-13.7,26.37-21.74,44.44-23,6.87-.47,20.68-.3,20.68-.3h174c.82,0,1.64.09,2.76.15L195.33,278H535.26V237.68Z"/></svg>